<svg width="19" height="18" viewBox="0 0 19 18" fill="none" xmlns="http://www.w3.org/2000/svg">
<path d="M12.155 8.46753L7.91005 4.23003C7.84033 4.15973 7.75737 4.10394 7.66598 4.06586C7.57459 4.02778 7.47656 4.00818 7.37755 4.00818C7.27854 4.00818 7.18051 4.02778 7.08911 4.06586C6.99772 4.10394 6.91477 4.15973 6.84505 4.23003C6.70536 4.37055 6.62695 4.56064 6.62695 4.75878C6.62695 4.95692 6.70536 5.14701 6.84505 5.28753L10.5575 9.03753L6.84505 12.75C6.70536 12.8905 6.62695 13.0806 6.62695 13.2788C6.62695 13.4769 6.70536 13.667 6.84505 13.8075C6.91451 13.8784 6.99734 13.9348 7.08875 13.9734C7.18016 14.012 7.27832 14.0321 7.37755 14.0325C7.47678 14.0321 7.57494 14.012 7.66635 13.9734C7.75775 13.9348 7.84059 13.8784 7.91005 13.8075L12.155 9.57003C12.2312 9.4998 12.2919 9.41456 12.3335 9.31968C12.375 9.22481 12.3965 9.12235 12.3965 9.01878C12.3965 8.9152 12.375 8.81275 12.3335 8.71787C12.2919 8.623 12.2312 8.53776 12.155 8.46753Z" fill="white"/>
</svg>
