<svg width="14" height="14" viewBox="0 0 14 14" fill="none" xmlns="http://www.w3.org/2000/svg">
<path d="M11.6668 0.333334H5.00016C4.46973 0.333334 3.96102 0.544048 3.58595 0.91912C3.21088 1.29419 3.00016 1.8029 3.00016 2.33333V3H2.3335C1.80306 3 1.29436 3.21071 0.919283 3.58579C0.54421 3.96086 0.333496 4.46957 0.333496 5V11.6667C0.333496 12.1971 0.54421 12.7058 0.919283 13.0809C1.29436 13.456 1.80306 13.6667 2.3335 13.6667H9.00016C9.5306 13.6667 10.0393 13.456 10.4144 13.0809C10.7894 12.7058 11.0002 12.1971 11.0002 11.6667V11H11.6668C12.1973 11 12.706 10.7893 13.081 10.4142C13.4561 10.0391 13.6668 9.53043 13.6668 9V2.33333C13.6668 1.8029 13.4561 1.29419 13.081 0.91912C12.706 0.544048 12.1973 0.333334 11.6668 0.333334ZM9.66683 11.6667C9.66683 11.8435 9.59659 12.013 9.47157 12.1381C9.34654 12.2631 9.17697 12.3333 9.00016 12.3333H2.3335C2.15669 12.3333 1.98712 12.2631 1.86209 12.1381C1.73707 12.013 1.66683 11.8435 1.66683 11.6667V7H9.66683V11.6667ZM9.66683 5.66667H1.66683V5C1.66683 4.82319 1.73707 4.65362 1.86209 4.5286C1.98712 4.40357 2.15669 4.33333 2.3335 4.33333H9.00016C9.17697 4.33333 9.34654 4.40357 9.47157 4.5286C9.59659 4.65362 9.66683 4.82319 9.66683 5V5.66667ZM12.3335 9C12.3335 9.17681 12.2633 9.34638 12.1382 9.47141C12.0132 9.59643 11.8436 9.66667 11.6668 9.66667H11.0002V5C10.9984 4.77257 10.9578 4.54712 10.8802 4.33333H12.3335V9ZM12.3335 3H4.3335V2.33333C4.3335 2.15652 4.40373 1.98695 4.52876 1.86193C4.65378 1.73691 4.82335 1.66667 5.00016 1.66667H11.6668C11.8436 1.66667 12.0132 1.73691 12.1382 1.86193C12.2633 1.98695 12.3335 2.15652 12.3335 2.33333V3Z"  />
</svg>
