<svg width="14" height="14" viewBox="0 0 14 14" fill="none" xmlns="http://www.w3.org/2000/svg">
<path d="M8.80758 7.36973L7.58366 6.66335V4.08335C7.58366 3.92864 7.5222 3.78027 7.41281 3.67087C7.30341 3.56148 7.15504 3.50002 7.00033 3.50002C6.84562 3.50002 6.69725 3.56148 6.58785 3.67087C6.47845 3.78027 6.41699 3.92864 6.41699 4.08335V7.00002C6.41697 7.10244 6.44391 7.20305 6.49511 7.29175C6.54631 7.38045 6.61996 7.45411 6.70866 7.50531L8.22424 8.38031C8.2906 8.41866 8.36386 8.44356 8.43985 8.45358C8.51583 8.46361 8.59304 8.45856 8.66708 8.43874C8.74111 8.41892 8.81051 8.3847 8.87132 8.33805C8.93213 8.29139 8.98314 8.23321 9.02146 8.16684C9.05977 8.10046 9.08463 8.02718 9.09462 7.95119C9.10461 7.87521 9.09952 7.79799 9.07966 7.72397C9.0598 7.64995 9.02555 7.58056 8.97886 7.51978C8.93218 7.459 8.87397 7.40801 8.80758 7.36973ZM7.00033 1.16669C5.8466 1.16669 4.71879 1.50881 3.7595 2.14978C2.80021 2.79076 2.05254 3.7018 1.61103 4.7677C1.16952 5.8336 1.054 7.00649 1.27908 8.13805C1.50416 9.2696 2.05973 10.309 2.87554 11.1248C3.69134 11.9406 4.73075 12.4962 5.8623 12.7213C6.99386 12.9463 8.16675 12.8308 9.23265 12.3893C10.2986 11.9478 11.2096 11.2001 11.8506 10.2408C12.4915 9.28156 12.8337 8.15374 12.8337 7.00002C12.8319 5.45345 12.2168 3.97072 11.1232 2.87713C10.0296 1.78354 8.5469 1.16841 7.00033 1.16669ZM7.00033 11.6667C6.07735 11.6667 5.1751 11.393 4.40767 10.8802C3.64024 10.3674 3.0421 9.6386 2.68889 8.78588C2.33568 7.93315 2.24327 6.99484 2.42333 6.0896C2.60339 5.18435 3.04785 4.35283 3.7005 3.70019C4.35314 3.04754 5.18466 2.60309 6.08991 2.42302C6.99515 2.24296 7.93346 2.33537 8.78618 2.68858C9.63891 3.04179 10.3677 3.63993 10.8805 4.40736C11.3933 5.17479 11.667 6.07704 11.667 7.00002C11.6656 8.23726 11.1735 9.42342 10.2986 10.2983C9.42373 11.1732 8.23757 11.6653 7.00033 11.6667Z" fill="white"/>
</svg>
