<svg width="26" height="26" viewBox="0 0 26 26" fill="none" xmlns="http://www.w3.org/2000/svg">
<path d="M17.0188 8.98084C16.9181 8.8793 16.7983 8.7987 16.6663 8.7437C16.5343 8.6887 16.3927 8.66039 16.2497 8.66039C16.1066 8.66039 15.965 8.6887 15.833 8.7437C15.701 8.7987 15.5812 8.8793 15.4805 8.98084L12.9997 11.4725L10.5188 8.98084C10.3148 8.77684 10.0382 8.66224 9.74966 8.66224C9.46117 8.66224 9.18449 8.77684 8.98049 8.98084C8.7765 9.18483 8.66189 9.46151 8.66189 9.75C8.66189 10.0385 8.7765 10.3152 8.98049 10.5192L11.4722 13L8.98049 15.4808C8.87895 15.5815 8.79836 15.7014 8.74336 15.8334C8.68836 15.9654 8.66004 16.107 8.66004 16.25C8.66004 16.393 8.68836 16.5346 8.74336 16.6666C8.79836 16.7986 8.87895 16.9185 8.98049 17.0192C9.0812 17.1207 9.20102 17.2013 9.33303 17.2563C9.46505 17.3113 9.60665 17.3396 9.74966 17.3396C9.89267 17.3396 10.0343 17.3113 10.1663 17.2563C10.2983 17.2013 10.4181 17.1207 10.5188 17.0192L12.9997 14.5275L15.4805 17.0192C15.5812 17.1207 15.701 17.2013 15.833 17.2563C15.965 17.3113 16.1066 17.3396 16.2497 17.3396C16.3927 17.3396 16.5343 17.3113 16.6663 17.2563C16.7983 17.2013 16.9181 17.1207 17.0188 17.0192C17.1204 16.9185 17.201 16.7986 17.256 16.6666C17.311 16.5346 17.3393 16.393 17.3393 16.25C17.3393 16.107 17.311 15.9654 17.256 15.8334C17.201 15.7014 17.1204 15.5815 17.0188 15.4808L14.5272 13L17.0188 10.5192C17.1204 10.4185 17.201 10.2986 17.256 10.1666C17.311 10.0346 17.3393 9.89301 17.3393 9.75C17.3393 9.60699 17.311 9.46539 17.256 9.33338C17.201 9.20136 17.1204 9.08155 17.0188 8.98084ZM20.6588 5.34084C19.6595 4.30614 18.4641 3.48083 17.1424 2.91307C15.8207 2.34531 14.3991 2.04646 12.9607 2.03396C11.5222 2.02146 10.0957 2.29556 8.76432 2.84027C7.43295 3.38498 6.22338 4.18939 5.20621 5.20656C4.18904 6.22373 3.38463 7.43329 2.83992 8.76467C2.29521 10.096 2.02111 11.5226 2.03361 12.961C2.04611 14.3995 2.34496 15.821 2.91273 17.1427C3.48049 18.4644 4.3058 19.6598 5.34049 20.6592C6.33983 21.6939 7.53523 22.5192 8.85694 23.0869C10.1787 23.6547 11.6002 23.9536 13.0386 23.9661C14.4771 23.9785 15.9036 23.7044 17.235 23.1597C18.5664 22.615 19.7759 21.8106 20.7931 20.7934C21.8103 19.7763 22.6147 18.5667 23.1594 17.2353C23.7041 15.904 23.9782 14.4774 23.9657 13.039C23.9532 11.6005 23.6544 10.179 23.0866 8.85729C22.5188 7.53558 21.6935 6.34018 20.6588 5.34084ZM19.1313 19.1317C17.7144 20.5502 15.8494 21.4336 13.8542 21.6313C11.859 21.8289 9.85691 21.3287 8.18914 20.2158C6.52137 19.1029 5.29105 17.4462 4.7078 15.5279C4.12455 13.6097 4.22445 11.5485 4.99048 9.6956C5.75652 7.84271 7.14129 6.31275 8.90887 5.36636C10.6765 4.41998 12.7175 4.11573 14.6842 4.50545C16.651 4.89517 18.4218 5.95475 19.6949 7.50367C20.968 9.05259 21.6648 10.995 21.6663 13C21.6702 14.1389 21.4481 15.2673 21.013 16.3198C20.5779 17.3723 19.9383 18.328 19.1313 19.1317Z" fill="#F43834"/>
</svg>
