<svg width="16" height="16" viewBox="0 0 16 16" fill="none" xmlns="http://www.w3.org/2000/svg">
<path d="M13.1333 11.7333C13.0667 11.6 13 11.4667 13 11.3333C13 11.0667 12.8667 10.8667 12.6667 10.6667C12.6 10.6 12.4667 10.5333 12.4 10.5333C12.8 9.33335 12.2 8.13335 11.5333 7.26668C11 6.46668 10.2 5.86668 10.2667 4.80001C10.2667 3.53335 10.4 1.20001 8.06667 1.40001C5.66667 1.53335 6.33333 4.00001 6.26667 4.86668C6.26667 5.60001 5.93333 6.33335 5.4 6.93335C5.26667 7.06668 5.13333 7.26668 5.06667 7.40001C4.4 8.20001 4.06667 9.26668 4.06667 10.2667C3.93333 10.4 3.8 10.5333 3.73333 10.6667C3.66667 10.7333 3.6 10.8 3.6 10.8667C3.53333 10.9333 3.4 11 3.26667 11.0667C3 11.1333 2.8 11.2667 2.66667 11.5333C2.6 11.7333 2.53333 12 2.6 12.2667C2.66667 12.4 2.66667 12.5333 2.6 12.7333C2.46667 13 2.46667 13.3333 2.6 13.6667C2.8 13.9333 3.13333 14 3.6 14.0667C3.93333 14.0667 4.33333 14.2 4.66667 14.3333C5 14.5333 5.4 14.6667 5.8 14.6667C6 14.6667 6.26667 14.6 6.46667 14.5333C6.66667 14.4 6.8 14.2667 6.86667 14.0667C7.13333 14.0667 7.53333 13.9333 8 13.9333C8.4 13.9333 8.8 14.0667 9.33333 14C9.33333 14.0667 9.33333 14.1333 9.4 14.2C9.53333 14.5333 9.86667 14.8 10.2667 14.8667C10.3333 14.8667 10.3333 14.8667 10.4 14.8667C10.9333 14.8 11.4667 14.5333 11.8 14.1333C12.0667 13.8667 12.4 13.6667 12.7333 13.5333C13.1333 13.3333 13.4 13.2 13.4667 12.8667C13.5333 12.4 13.4 12.1333 13.1333 11.7333ZM8.53333 3.20001C8.93333 3.26668 9.26667 3.60001 9.2 4.00001C9.2 4.20001 9.13333 4.40001 9 4.60001C9 4.60001 9 4.60001 8.93333 4.60001C8.8 4.53335 8.73333 4.53335 8.66667 4.46668C8.73333 4.40001 8.73333 4.26668 8.8 4.13335C8.8 3.86668 8.66667 3.66668 8.53333 3.66668C8.33333 3.66668 8.2 3.86668 8.2 4.13335V4.20001C8.13333 4.13335 8 4.13335 7.93333 4.06668V4.00001C7.86667 3.66668 8.13333 3.26668 8.53333 3.20001ZM8.33333 4.53335C8.4 4.60001 8.53333 4.66668 8.6 4.66668C8.66667 4.66668 8.8 4.73335 8.86667 4.80001C9 4.86668 9.13333 4.93335 9.13333 5.13335C9.13333 5.33335 8.93333 5.53335 8.53333 5.66668C8.4 5.73335 8.33333 5.73335 8.26667 5.80001C8.06667 5.93335 7.86667 6.00001 7.6 6.00001C7.4 6.00001 7.2 5.86668 7.06667 5.73335C7 5.66668 6.93333 5.60001 6.8 5.53335C6.73333 5.46668 6.6 5.33335 6.53333 5.13335C6.53333 5.06668 6.6 5.00001 6.66667 4.93335C6.86667 4.80001 6.93333 4.73335 7 4.66668L7.06667 4.60001C7.2 4.40001 7.46667 4.26668 7.73333 4.26668C7.93333 4.33335 8.13333 4.40001 8.33333 4.53335ZM6.93333 3.33335C7.2 3.33335 7.4 3.60001 7.46667 4.06668C7.46667 4.13335 7.46667 4.13335 7.46667 4.20001C7.4 4.20001 7.26667 4.26668 7.2 4.33335C7.2 4.33335 7.2 4.26668 7.2 4.20001C7.2 4.00001 7.06667 3.80001 6.93333 3.86668C6.8 3.86668 6.73333 4.06668 6.73333 4.26668C6.73333 4.40001 6.8 4.46668 6.86667 4.53335C6.86667 4.53335 6.8 4.60001 6.73333 4.60001C6.6 4.46668 6.46667 4.26668 6.46667 4.06668C6.46667 3.66668 6.66667 3.33335 6.93333 3.33335ZM6.26667 14.0667C5.8 14.2667 5.2 14.2 4.8 13.9333C4.4 13.7333 4.06667 13.6667 3.6 13.6667C3.26667 13.6 2.93333 13.6 2.86667 13.4667C2.8 13.3333 2.8 13.1333 2.93333 12.8C3 12.6 3 12.4 2.93333 12.2C2.86667 12 2.86667 11.8667 2.93333 11.6667C3 11.4667 3.13333 11.4 3.33333 11.3333C3.53333 11.2667 3.66667 11.2 3.8 11.0667C3.86667 11 3.93333 10.9333 4 10.8C4.2 10.5333 4.33333 10.4 4.53333 10.4C4.93333 10.4667 5.26667 11.0667 5.53333 11.6667C5.66667 11.8667 5.8 12.1333 6 12.3333C6.26667 12.6667 6.6 13.1333 6.6 13.4C6.6 13.7333 6.46667 13.9333 6.26667 14.0667ZM9.53333 12.6C9.53333 12.6667 9.53333 12.6667 9.46667 12.7333C8.66667 13.3333 7.6 13.4 6.73333 12.9333C6.6 12.7333 6.46667 12.5333 6.33333 12.3333C6.93333 12.2667 6.8 11.4667 5.53333 10.6667C4.2 9.80001 5.13333 8.20001 5.6 7.46668C5.66667 7.40001 5.66667 7.46668 5.4 8.00001C5.2 8.40001 4.8 9.40001 5.33333 10.1333C5.33333 9.60001 5.46667 9.06668 5.66667 8.53335C6.13333 7.66668 6.46667 6.66668 6.66667 5.66668C6.73333 5.73335 6.73333 5.73335 6.8 5.73335C6.86667 5.80001 6.93333 5.86668 7 5.86668C7.13333 6.06668 7.4 6.13335 7.6 6.13335H7.66667C7.93333 6.13335 8.2 6.06668 8.4 5.86668C8.46667 5.80001 8.53333 5.73335 8.66667 5.73335C8.86667 5.66668 9.06667 5.53335 9.26667 5.33335C9.53333 6.20001 9.8 7.00001 10.2 7.73335C10.4667 8.26668 10.6667 8.80001 10.8 9.40001C11 9.40001 11.2667 9.46668 11.4667 9.60001C12 9.86668 12.2 10.0667 12.1333 10.4C12.0667 10.4 12.0667 10.4 12 10.4C12 10.2 11.8667 10 11.4 9.80001C10.9333 9.60001 10.5333 9.60001 10.4 10.0667C10.3333 10.0667 10.2667 10.1333 10.2 10.1333C9.66667 10.4 9.66667 11.1333 9.6 11.8667C9.66667 12.1333 9.6 12.3333 9.53333 12.6ZM12.6 13C12.2 13.1333 11.8667 13.4 11.6 13.7333C11.3333 14.1333 10.8667 14.4 10.3333 14.3333C10.0667 14.3333 9.8 14.1333 9.73333 13.8667C9.66667 13.4667 9.66667 13.0667 9.86667 12.6667C9.93333 12.4 10 12.2 10.0667 11.9333C10.1333 11.1333 10.1333 10.6667 10.4667 10.4667C10.4667 10.8 10.6667 11 10.9333 11.1333C11.2667 11.1333 11.6 11.0667 11.8667 10.8C11.9333 10.8 11.9333 10.8 12 10.8C12.2 10.8 12.3333 10.8 12.4667 10.9333C12.6 11.0667 12.6667 11.2667 12.6667 11.4C12.6667 11.6 12.8 11.8 12.8667 12C13.2 12.3333 13.2 12.5333 13.2 12.6C13.1333 12.7333 12.8667 12.8667 12.6 13ZM6.6 5.00001C6.53333 5.00001 6.53333 5.00001 6.53333 5.06668C6.53333 5.06668 6.53333 5.13335 6.6 5.13335C6.66667 5.13335 6.66667 5.20001 6.66667 5.20001C6.86667 5.46668 7.2 5.60001 7.6 5.66668C7.93333 5.60001 8.26667 5.53335 8.6 5.26668C8.73333 5.20001 8.86667 5.13335 9 5.06668C9.06667 5.06668 9.06667 5.00001 9.06667 5.00001C9.06667 4.93335 9.06667 4.93335 9 4.93335C8.86667 5.00001 8.66667 5.06668 8.53333 5.13335C8.26667 5.33335 7.93333 5.46668 7.6 5.46668C7.26667 5.46668 7 5.26668 6.8 5.06668C6.73333 5.06668 6.66667 5.00001 6.6 5.00001Z" fill="#F43834"/>
</svg>
