<svg width="16" height="16" viewBox="0 0 16 16" fill="none" xmlns="http://www.w3.org/2000/svg">
<path d="M13.6695 10.4957C13.2616 10.3213 12.9142 10.0305 12.6706 9.65975C12.4269 9.289 12.298 8.85468 12.2997 8.41106C12.305 8.01506 12.411 7.62694 12.6079 7.28329C12.8047 6.93963 13.0858 6.65178 13.4247 6.44686C13.5014 6.39948 13.5677 6.33704 13.6195 6.26332C13.6714 6.1896 13.7077 6.10613 13.7264 6.01795C13.7451 5.92977 13.7457 5.83872 13.7282 5.7503C13.7107 5.66189 13.6755 5.57794 13.6246 5.50353C13.3199 5.06051 12.9228 4.68887 12.4605 4.41428C11.9983 4.13968 11.4819 3.96867 10.9472 3.91304C11.4449 3.12313 11.6708 2.19217 11.5904 1.26199C11.5747 1.09309 11.4942 0.936825 11.3658 0.826C11.2373 0.715175 11.071 0.658401 10.9016 0.66759C9.7569 0.769616 8.69575 1.30952 7.93936 2.17475C7.45988 2.73034 7.12153 3.39341 6.95303 4.10769C6.60491 3.98988 6.24044 3.92749 5.87295 3.9228C5.19261 3.94208 4.52879 4.13682 3.94586 4.48814C3.36293 4.83946 2.88066 5.33544 2.54581 5.92799C1.28734 8.11288 2.0572 11.387 3.42047 13.3577C3.96735 14.1474 4.78799 15.3329 6.02594 15.3329C6.05035 15.3329 6.07509 15.3329 6.09983 15.3316C6.51462 15.3081 6.92069 15.203 7.29482 15.0224C7.59366 14.8709 7.92335 14.7902 8.25837 14.7867C8.57341 14.7905 8.88324 14.8676 9.16331 15.0119C9.57256 15.2056 10.0186 15.3092 10.4713 15.316C11.7466 15.2919 12.4999 14.1916 13.05 13.3876C13.4841 12.7489 13.8238 12.051 14.0585 11.3153C14.1085 11.1548 14.0963 10.9814 14.0242 10.8295C13.9521 10.6776 13.8255 10.5584 13.6695 10.4957V10.4957ZM8.9488 3.0452C9.29895 2.65353 9.73769 2.35129 10.2284 2.1637C10.1211 2.69185 9.88351 3.18485 9.53734 3.59794C9.30237 3.87985 9.01648 4.11507 8.69457 4.29132L8.69262 4.29199C8.67374 4.2998 8.65486 4.30696 8.63595 4.31478C8.51161 4.3636 8.35795 4.42415 8.23947 4.46321C8.3539 3.93876 8.59775 3.45128 8.9488 3.0452V3.0452ZM11.9498 12.6351C11.414 13.4176 10.9924 13.9729 10.4468 13.9827C10.1831 13.9819 9.9238 13.9149 9.69261 13.788C9.2457 13.5703 8.75551 13.4559 8.25837 13.4534C7.74396 13.456 7.23653 13.5727 6.77269 13.7952C6.54718 13.9103 6.30116 13.9798 6.04873 13.9996H6.02888C5.48688 13.9996 4.90388 13.1578 4.51683 12.5986C3.54841 11.1988 2.65518 8.40975 3.70141 6.59334C3.9208 6.20028 4.23807 5.87061 4.62243 5.63631C5.00679 5.40202 5.44519 5.27106 5.89509 5.25614L5.91755 5.25548C6.29707 5.28773 6.66768 5.38808 7.01163 5.5517C7.09919 5.5862 7.18545 5.62071 7.27107 5.65261C7.29287 5.66173 7.31533 5.67019 7.33812 5.67735C7.57536 5.77277 7.82737 5.8263 8.08291 5.83556C8.44474 5.8068 8.79819 5.71168 9.12558 5.55496C9.58708 5.33097 10.0944 5.21752 10.6073 5.22358C11.156 5.24505 11.6828 5.44481 12.1077 5.79259C11.7445 6.12717 11.4554 6.53402 11.2589 6.98699C11.0623 7.43996 10.9627 7.92904 10.9664 8.4228V8.42346C10.9626 9.02121 11.1106 9.61015 11.3964 10.1352C11.6821 10.6602 12.0965 11.1041 12.6005 11.4254C12.425 11.8496 12.207 12.2548 11.9498 12.6351V12.6351Z" fill="#F43834"/>
</svg>
