<svg width="16" height="16" viewBox="0 0 16 16" fill="none" xmlns="http://www.w3.org/2000/svg">
<path d="M7.99984 10C8.70708 10 9.38536 9.71905 9.88546 9.21895C10.3856 8.71885 10.6665 8.04057 10.6665 7.33333V3.33333C10.6665 2.62609 10.3856 1.94781 9.88546 1.44771C9.38536 0.947616 8.70708 0.666664 7.99984 0.666664C7.29259 0.666664 6.61432 0.947616 6.11422 1.44771C5.61412 1.94781 5.33317 2.62609 5.33317 3.33333V7.33333C5.33317 8.04057 5.61412 8.71885 6.11422 9.21895C6.61432 9.71905 7.29259 10 7.99984 10ZM6.6665 3.33333C6.6665 2.97971 6.80698 2.64057 7.05703 2.39052C7.30708 2.14047 7.64621 2 7.99984 2C8.35346 2 8.6926 2.14047 8.94265 2.39052C9.19269 2.64057 9.33317 2.97971 9.33317 3.33333V7.33333C9.33317 7.68695 9.19269 8.02609 8.94265 8.27614C8.6926 8.52619 8.35346 8.66666 7.99984 8.66666C7.64621 8.66666 7.30708 8.52619 7.05703 8.27614C6.80698 8.02609 6.6665 7.68695 6.6665 7.33333V3.33333ZM13.3332 7.33333C13.3332 7.15652 13.2629 6.98695 13.1379 6.86193C13.0129 6.7369 12.8433 6.66666 12.6665 6.66666C12.4897 6.66666 12.3201 6.7369 12.1951 6.86193C12.0701 6.98695 11.9998 7.15652 11.9998 7.33333C11.9998 8.3942 11.5784 9.41161 10.8283 10.1618C10.0781 10.9119 9.0607 11.3333 7.99984 11.3333C6.93897 11.3333 5.92156 10.9119 5.17141 10.1618C4.42126 9.41161 3.99984 8.3942 3.99984 7.33333C3.99984 7.15652 3.9296 6.98695 3.80457 6.86193C3.67955 6.7369 3.50998 6.66666 3.33317 6.66666C3.15636 6.66666 2.98679 6.7369 2.86177 6.86193C2.73674 6.98695 2.6665 7.15652 2.6665 7.33333C2.66768 8.63153 3.14232 9.88472 4.00144 10.858C4.86055 11.8312 6.04516 12.4577 7.33317 12.62V14H5.99984C5.82303 14 5.65346 14.0702 5.52843 14.1953C5.40341 14.3203 5.33317 14.4899 5.33317 14.6667C5.33317 14.8435 5.40341 15.013 5.52843 15.1381C5.65346 15.2631 5.82303 15.3333 5.99984 15.3333H9.99984C10.1766 15.3333 10.3462 15.2631 10.4712 15.1381C10.5963 15.013 10.6665 14.8435 10.6665 14.6667C10.6665 14.4899 10.5963 14.3203 10.4712 14.1953C10.3462 14.0702 10.1766 14 9.99984 14H8.6665V12.62C9.95452 12.4577 11.1391 11.8312 11.9982 10.858C12.8574 9.88472 13.332 8.63153 13.3332 7.33333V7.33333Z" />
</svg>
