<svg width="16" height="16" viewBox="0 0 16 16" fill="none" xmlns="http://www.w3.org/2000/svg">
<path d="M12.6668 1.33333H3.3335C2.80306 1.33333 2.29436 1.54404 1.91928 1.91911C1.54421 2.29419 1.3335 2.8029 1.3335 3.33333V10C1.3335 10.5304 1.54421 11.0391 1.91928 11.4142C2.29436 11.7893 2.80306 12 3.3335 12H5.0935L4.70683 12.6667C4.58981 12.8694 4.5282 13.0993 4.5282 13.3333C4.5282 13.5674 4.58981 13.7973 4.70683 14C4.82486 14.2045 4.99506 14.3739 5.20004 14.491C5.40502 14.6082 5.63742 14.6688 5.8735 14.6667H10.1802C10.414 14.6664 10.6436 14.6047 10.8461 14.4877C11.0485 14.3707 11.2166 14.2025 11.3335 14C11.4505 13.7973 11.5121 13.5674 11.5121 13.3333C11.5121 13.0993 11.4505 12.8694 11.3335 12.6667L10.9402 12H12.6668C13.1973 12 13.706 11.7893 14.081 11.4142C14.4561 11.0391 14.6668 10.5304 14.6668 10V3.33333C14.6668 2.8029 14.4561 2.29419 14.081 1.91911C13.706 1.54404 13.1973 1.33333 12.6668 1.33333ZM5.84683 13.3333L6.66683 12H9.3335L10.1335 13.3333H5.84683ZM13.3335 10C13.3335 10.1768 13.2633 10.3464 13.1382 10.4714C13.0132 10.5964 12.8436 10.6667 12.6668 10.6667H3.3335C3.15669 10.6667 2.98712 10.5964 2.86209 10.4714C2.73707 10.3464 2.66683 10.1768 2.66683 10V9.33333H13.3335V10ZM13.3335 8H2.66683V3.33333C2.66683 3.15652 2.73707 2.98695 2.86209 2.86192C2.98712 2.7369 3.15669 2.66666 3.3335 2.66666H12.6668C12.8436 2.66666 13.0132 2.7369 13.1382 2.86192C13.2633 2.98695 13.3335 3.15652 13.3335 3.33333V8Z"  />
</svg>
