<svg width="15" height="14" viewBox="0 0 15 14" fill="none" xmlns="http://www.w3.org/2000/svg">
<path d="M11.5837 3.79176H10.837L10.6503 3.20843C10.5293 2.86615 10.3048 2.56997 10.008 2.36094C9.71119 2.1519 9.3567 2.04036 8.99366 2.04176H6.00699C5.64039 2.04245 5.28327 2.15824 4.98602 2.37281C4.68877 2.58737 4.46641 2.88986 4.35033 3.23759L4.16366 3.82093H3.41699C2.95286 3.82093 2.50774 4.0053 2.17956 4.33349C1.85137 4.66168 1.66699 5.1068 1.66699 5.57093V10.2376C1.66699 10.7017 1.85137 11.1468 2.17956 11.475C2.50774 11.8032 2.95286 11.9876 3.41699 11.9876H11.5837C12.0478 11.9876 12.4929 11.8032 12.8211 11.475C13.1493 11.1468 13.3337 10.7017 13.3337 10.2376V5.57093C13.3375 5.33867 13.2951 5.10797 13.2089 4.89227C13.1227 4.67657 12.9944 4.4802 12.8315 4.31459C12.6686 4.14899 12.4744 4.01747 12.2602 3.92771C12.0459 3.83794 11.8159 3.79173 11.5837 3.79176ZM12.167 10.2084C12.167 10.3631 12.1055 10.5115 11.9961 10.6209C11.8867 10.7303 11.7384 10.7918 11.5837 10.7918H3.41699C3.26228 10.7918 3.11391 10.7303 3.00451 10.6209C2.89512 10.5115 2.83366 10.3631 2.83366 10.2084V5.54176C2.83366 5.38705 2.89512 5.23868 3.00451 5.12928C3.11391 5.01989 3.26228 4.95843 3.41699 4.95843H4.58366C4.71086 4.96507 4.83675 4.92989 4.94208 4.85826C5.04741 4.78664 5.1264 4.6825 5.16699 4.56176L5.48199 3.60509C5.52113 3.48923 5.59568 3.3886 5.69512 3.31742C5.79457 3.24624 5.91387 3.20811 6.03616 3.20843H9.02283C9.14512 3.20811 9.26442 3.24624 9.36386 3.31742C9.4633 3.3886 9.53786 3.48923 9.57699 3.60509L9.89199 4.56176C9.92942 4.67303 9.99956 4.77041 10.0932 4.84118C10.1869 4.91195 10.2997 4.95282 10.417 4.95843H11.5837C11.7384 4.95843 11.8867 5.01989 11.9961 5.12928C12.1055 5.23868 12.167 5.38705 12.167 5.54176V10.2084ZM7.50033 4.95843C7.03884 4.95843 6.58771 5.09528 6.204 5.35167C5.82028 5.60806 5.52121 5.97247 5.34461 6.39883C5.168 6.82519 5.12179 7.29435 5.21183 7.74697C5.30186 8.19959 5.52409 8.61535 5.85041 8.94168C6.17673 9.268 6.59249 9.49023 7.04511 9.58026C7.49774 9.67029 7.96689 9.62408 8.39325 9.44748C8.81961 9.27088 9.18403 8.97181 9.44042 8.58809C9.69681 8.20438 9.83366 7.75325 9.83366 7.29176C9.83366 6.67292 9.58783 6.07943 9.15024 5.64185C8.71266 5.20426 8.11916 4.95843 7.50033 4.95843V4.95843ZM7.50033 8.45843C7.26958 8.45843 7.04402 8.39 6.85216 8.26181C6.6603 8.13361 6.51077 7.95141 6.42247 7.73823C6.33416 7.52504 6.31106 7.29047 6.35608 7.06416C6.40109 6.83784 6.51221 6.62997 6.67537 6.4668C6.83853 6.30364 7.04641 6.19253 7.27272 6.14751C7.49903 6.1025 7.73361 6.1256 7.94679 6.2139C8.15997 6.3022 8.34218 6.45174 8.47037 6.6436C8.59857 6.83545 8.66699 7.06102 8.66699 7.29176C8.66699 7.60118 8.54408 7.89793 8.32528 8.11672C8.10649 8.33551 7.80974 8.45843 7.50033 8.45843Z" fill="#3680FA"/>
</svg>
