<svg width="16" height="16" viewBox="0 0 16 16" fill="none" xmlns="http://www.w3.org/2000/svg">
<path d="M6.66683 8.66668H2.00016C1.82335 8.66668 1.65378 8.73692 1.52876 8.86194C1.40373 8.98696 1.3335 9.15653 1.3335 9.33334V14C1.3335 14.1768 1.40373 14.3464 1.52876 14.4714C1.65378 14.5964 1.82335 14.6667 2.00016 14.6667H6.66683C6.84364 14.6667 7.01321 14.5964 7.13823 14.4714C7.26326 14.3464 7.3335 14.1768 7.3335 14V9.33334C7.3335 9.15653 7.26326 8.98696 7.13823 8.86194C7.01321 8.73692 6.84364 8.66668 6.66683 8.66668ZM6.00016 13.3333H2.66683V10H6.00016V13.3333ZM14.0002 1.33334H9.3335C9.15669 1.33334 8.98712 1.40358 8.86209 1.52861C8.73707 1.65363 8.66683 1.8232 8.66683 2.00001V6.66668C8.66683 6.84349 8.73707 7.01306 8.86209 7.13808C8.98712 7.26311 9.15669 7.33334 9.3335 7.33334H14.0002C14.177 7.33334 14.3465 7.26311 14.4716 7.13808C14.5966 7.01306 14.6668 6.84349 14.6668 6.66668V2.00001C14.6668 1.8232 14.5966 1.65363 14.4716 1.52861C14.3465 1.40358 14.177 1.33334 14.0002 1.33334V1.33334ZM13.3335 6.00001H10.0002V2.66668H13.3335V6.00001ZM14.0002 8.66668H9.3335C9.15669 8.66668 8.98712 8.73692 8.86209 8.86194C8.73707 8.98696 8.66683 9.15653 8.66683 9.33334V14C8.66683 14.1768 8.73707 14.3464 8.86209 14.4714C8.98712 14.5964 9.15669 14.6667 9.3335 14.6667H14.0002C14.177 14.6667 14.3465 14.5964 14.4716 14.4714C14.5966 14.3464 14.6668 14.1768 14.6668 14V9.33334C14.6668 9.15653 14.5966 8.98696 14.4716 8.86194C14.3465 8.73692 14.177 8.66668 14.0002 8.66668ZM13.3335 13.3333H10.0002V10H13.3335V13.3333ZM6.66683 1.33334H2.00016C1.82335 1.33334 1.65378 1.40358 1.52876 1.52861C1.40373 1.65363 1.3335 1.8232 1.3335 2.00001V6.66668C1.3335 6.84349 1.40373 7.01306 1.52876 7.13808C1.65378 7.26311 1.82335 7.33334 2.00016 7.33334H6.66683C6.84364 7.33334 7.01321 7.26311 7.13823 7.13808C7.26326 7.01306 7.3335 6.84349 7.3335 6.66668V2.00001C7.3335 1.8232 7.26326 1.65363 7.13823 1.52861C7.01321 1.40358 6.84364 1.33334 6.66683 1.33334V1.33334ZM6.00016 6.00001H2.66683V2.66668H6.00016V6.00001Z" fill="#F43834"/>
</svg>
